PathFileType	4	(X/Y/Z)	Patient4_TMGait_0pt3_02_right_05.trc.trc
DataRate	CameraRate	NumFrames	NumMarkers	Units	OrigDataRate	OrigDataStartFrame	OrigNumFrames
47.619047619048	47.619047619048	4	33	mm	47.619047619048	1	       141
Frame#	Time	Sacral			L.Shoulder			Chest			R.Shoulder			Neck			R.ASIS			L.ASIS			R.Thigh.Superior			R.Thigh.Lateral			R.Thigh.Inferior			R.Patella			L.Thigh.Superior			L.Thigh.Lateral			L.Thigh.Inferior			L.Patella			L.Shank.Superior			L.Shank.Lateral			L.Shank.Inferior			R.Shank.Superior			R.Shank.Lateral			R.Shank.Inferior			R.Heel			R.Midfoot.Superior			R.Midfoot.Lateral			R.Toe			L.Heel			L.Midfoot.Lateral			L.Midfoot.Superior			L.Toe			L.Elbow			L.Wrist			R.Elbow			R.Wrist			
		X1	Y1	Z1	X2	Y2	Z2	X3	Y3	Z3	X4	Y4	Z4	X5	Y5	Z5	X6	Y6	Z6	X7	Y7	Z7	X8	Y8	Z8	X9	Y9	Z9	X10	Y10	Z10	X11	Y11	Z11	X12	Y12	Z12	X13	Y13	Z13	X14	Y14	Z14	X15	Y15	Z15	X16	Y16	Z16	X17	Y17	Z17	X18	Y18	Z18	X19	Y19	Z19	X20	Y20	Z20	X21	Y21	Z21	X22	Y22	Z22	X23	Y23	Z23	X24	Y24	Z24	X25	Y25	Z25	X26	Y26	Z26	X27	Y27	Z27	X28	Y28	Z28	X29	Y29	Z29	X30	Y30	Z30	X31	Y31	Z31	X32	Y32	Z32	X33	Y33	Z33	

1	8.290000000000	731.110144150319	999.382798895830	435.054335622884	917.037447810957	1419.307728645243	239.254450210643	1020.494693448664	1353.516077165376	400.947547189278	941.711666130476	1434.358968537045	573.344152632314	899.995285338321	1485.617423087038	397.364851954943	960.439437308111	931.692026686540	549.281015356815	946.788156910857	950.108381060190	277.692800249677	1002.881305908912	728.597525502142	532.926845656601	926.694551046762	621.788397669799	602.386972527153	1006.384140422703	560.476631625621	526.910011452947	993.799692662991	449.343397685851	554.566261075531	1008.990012506172	746.923817631323	327.852369548754	935.683262746561	618.865890229506	274.785038471896	1021.487417884166	552.215696127675	350.158223722491	1026.275399447241	477.358485757638	362.394367666343	988.142597582081	403.600951257799	357.609584185441	891.314065450339	298.044978126384	302.225298282787	916.790904532501	185.834667254783	381.667981928006	904.842156320652	392.493793949072	562.661710180298	774.620542889097	377.556796831954	614.637290414336	747.959239591687	266.882319980048	574.502567807916	546.912061815489	241.542243991670	527.130390020657	689.875970290679	148.731919777338	597.316491086536	580.074028010170	177.967058144723	612.294007735292	720.573098857973	28.396424550627	640.585856928448	768.167427327120	39.967788173014	412.624233440406	849.045701908130	36.925803443526	339.598454491226	931.176127906367	95.522011328587	374.178194550071	1060.492986165001	39.684442971770	355.808679093643	916.580182389715	1067.033439660034	119.498822776608	984.358751120043	814.570073563307	126.776467509283	994.790615032528	1092.299867984339	708.618299825420	1148.942659862754	883.064355673054	742.928812596600	
2	8.311000000000	729.035055158700	996.296454885785	430.962415258106	918.532627705185	1418.104456563953	239.255987589952	1019.029034197097	1351.065360871899	402.120961755186	937.219277478980	1430.052220032700	573.981807573235	899.253869901210	1483.422714825318	397.841871431248	957.808666998154	930.270052024448	547.504909904810	946.403361057724	947.830611441523	275.439843949175	1006.342919385492	730.629435067323	530.071977505570	934.352594095520	622.268184537890	600.115081681035	1015.558230602319	563.278590701428	524.106522148657	1006.344073041718	451.462947349894	552.048606830566	1008.993722212168	744.832773412184	326.055109975043	936.219873423666	616.285590024743	273.717222475672	1022.087008835356	550.143363986344	349.857427106255	1026.873447286763	475.034781661415	362.614171796757	987.390939152315	401.101367085877	357.826375421218	889.239542775649	296.949161399812	302.009302415381	912.281378148091	184.586009083527	381.737505441261	917.582281669469	393.399734104524	560.549343736263	786.901907965660	378.230429572184	611.971044023407	760.977401575828	267.165526644217	572.501843106071	559.235999713298	238.742815140721	524.910900346441	704.415673344183	149.975680536485	595.794143443633	593.892392557246	176.894785182325	610.815904542138	737.902348186559	30.746301112268	640.311573639211	761.834803548311	40.068938732140	412.505698216446	842.732180389808	36.889699733579	339.508624639670	924.881504290633	95.363934198705	374.207639279507	1054.161815394712	39.589612861775	355.726200640314	927.287739598722	1067.046512725055	117.049291087428	1006.074369317001	818.391839158309	124.746043613329	970.611960022174	1085.687950136998	705.867990228390	1104.546703000211	866.756881120112	740.951681734155	
3	8.332000000000	726.914574481112	993.436917607676	426.810885033905	920.151577767290	1417.111476786782	239.367753742119	1017.507615470351	1348.821568064035	403.480595353684	932.487592583957	1425.977022170113	574.681743769120	898.473984239636	1481.423884295179	398.392530655705	955.031557586617	929.022961402270	545.822546923007	946.094798267553	945.787669208843	273.295174550447	1009.661298960072	732.992846609756	527.226130601479	942.023849135542	623.112313812247	597.904542931485	1024.690244398099	566.497030748959	521.321767175942	1019.041528679486	454.097791429246	549.607351980373	1008.779684871510	742.782470668098	324.278886554986	936.373761724346	613.853161630931	272.603959529478	1022.194650990175	548.111749291341	349.497017121863	1026.913045710619	472.796031531308	362.764324188919	986.141626376858	398.715722220623	357.968610906814	886.748235810156	295.889430469440	301.730300221196	907.464744904465	183.398581722040	381.765554789795	930.708985345569	394.610601503513	558.578341288133	799.650604302627	378.656678837785	609.471081110489	774.927953076128	267.091788793968	570.694565874553	572.670882857898	234.644825786434	522.928254418508	720.347292132432	150.749514002414	594.536011152684	609.049895689991	174.829160130080	609.613424770365	757.141682299163	32.928006435469	640.431346312018	755.274234085744	40.158409793299	412.380318017131	836.198711309299	36.848802326115	339.407334734859	918.363393685047	95.208441880345	374.214626997362	1047.611441777622	39.497587760416	355.645054389027	938.193642515849	1067.433336157984	114.572078998804	1028.683048811269	823.083347085216	122.848775468661	945.460050845963	1079.677003177132	702.861075305548	1058.726971558285	851.383951696013	738.383878752357	
4	8.353000000000	724.800232937461	991.048077857302	422.721231186227	921.902688038049	1416.481780580168	239.644428076028	1015.963401365542	1346.980430594704	405.067275945985	927.590317022567	1422.420018421740	575.443328575264	897.670155286259	1479.805924808586	399.031567881399	952.131120334518	928.110596446259	544.351621738979	945.873023415285	944.152827670904	271.406860629328	1012.621985981216	735.764882308732	524.530083777242	949.370441167454	624.459272544678	595.881603529336	1033.372376822746	570.200552380168	518.701189921881	1031.430218574781	457.399734836011	547.380125918774	1008.229262108676	740.876061685988	322.618253567667	935.926705243458	611.744780841899	271.476215494645	1021.527622152521	546.225394259159	349.079628000482	1026.076040896391	470.780121505914	362.821962932315	984.160231910728	396.604285378167	358.005194129635	883.702243496062	294.933013206374	301.372457973616	902.347900483039	182.354643490506	381.735277974010	943.880461701037	396.235273956362	556.884602723979	812.636584350367	378.705450918273	607.330033329407	789.767979857019	266.537577732042	569.241841152081	587.357815704370	228.834112953957	521.397445477558	737.808605640748	150.863821028368	593.706390542152	625.735706619971	171.421980806847	608.867052381329	778.537643040971	34.866457114120	641.044538276053	748.609347076875	40.229577966513	412.248852543630	829.569244626823	36.802318315679	339.294751060785	911.745063226080	95.064562313898	374.189596524138	1040.967175748999	39.414075173761	355.568823572769	949.001408499140	1068.370006351062	112.165752401319	1051.761370776480	828.958150342623	121.236625333931	919.863661570682	1074.815427220087	699.587426439890	1012.598071134484	837.980825455877	735.066161199543	
